<?xml version="1.0" encoding="utf-8"?>
<!-- Svg Vector Icons : http://www.onlinewebfonts.com/icon -->
<!DOCTYPE svg PUBLIC "-//W3C//DTD SVG 1.1//EN" "http://www.w3.org/Graphics/SVG/1.1/DTD/svg11.dtd">
<svg version="1.1" xmlns="http://www.w3.org/2000/svg" xmlns:xlink="http://www.w3.org/1999/xlink" x="0px" y="0px" viewBox="0 0 1000 1000" enable-background="new 0 0 1000 1000" xml:space="preserve">
<metadata> Svg Vector Icons : http://www.onlinewebfonts.com/icon </metadata>
<g><g><path d="M500,10C229.8,10,10,229.8,10,500c0,270.2,219.8,490,490,490s490-219.8,490-490C990,229.8,770.2,10,500,10z M663.5,520H520v143.5c0,11.1-8.9,20-20,20c-11.1,0-20-8.9-20-20V520H336.5c-11,0-20-9-20-20c0-11,9-20,20-20H480V336.5c0-11,8.9-20,20-20c11.1,0,20,9,20,20V480h143.5c11.1,0,20,9,20,20C683.5,511,674.5,520,663.5,520z"/></g><g></g><g></g><g></g><g></g><g></g><g></g><g></g><g></g><g></g><g></g><g></g><g></g><g></g><g></g><g></g></g>
</svg>